<?xml version="1.0" encoding="utf-8"?>
<!-- Generator: Adobe Illustrator 19.0.0, SVG Export Plug-In . SVG Version: 6.00 Build 0)  -->
<svg version="1.0" id="Layer_1" xmlns="http://www.w3.org/2000/svg" xmlns:xlink="http://www.w3.org/1999/xlink" x="0px" y="0px"
	 viewBox="0 0 977.8 277.3" style="enable-background:new 0 0 977.8 277.3;" xml:space="preserve">
<style type="text/css">
	.st0{fill:#FFFFFF;}
	.st1{fill:#FFD100;}
	.st2{fill:#435363;}
</style>
<g>
	<g>
		<path class="st0" d="M105.4,276.9c-0.7,0-1.1-0.2-1.1-0.7c0-0.2,0.1-0.3,0.2-0.4c0.1-0.1,0.3-0.2,0.5-0.2l0.7-0.1
			c0.8-0.1,1.1-0.6,1.1-1.6v-17.1c0-0.6,0-1-0.1-1.2c-0.1-0.2-0.3-0.3-0.8-0.4c-0.6-0.1-0.9-0.3-0.9-0.7c0-0.4,0.5-0.9,1.4-1.3
			c1-0.5,2.3-0.8,3.7-1.1c1.4-0.3,2.9-0.4,4.5-0.4c3,0,5.2,0.6,6.8,1.7c1.6,1.2,2.4,2.8,2.4,5c0,1.8-0.6,3.3-1.7,4.4
			c-1.1,1.2-2.7,1.9-4.7,2.1l6.8,9.4c0.2,0.2,0.3,0.4,0.5,0.6c0.1,0.1,0.2,0.3,0.4,0.3c0.1,0.1,0.3,0.1,0.5,0.2
			c0.2,0,0.4,0.1,0.7,0.1c0.7,0,1,0.3,1,0.7c0,0.3-0.1,0.5-0.3,0.6c-0.2,0.1-0.5,0.1-1.1,0.1h-3.3c-0.3,0-0.6,0-0.8,0
			c-0.2,0-0.4-0.1-0.5-0.1c-0.1-0.1-0.3-0.2-0.4-0.3c-0.1-0.1-0.3-0.4-0.5-0.6l-7.2-10.1c-0.2-0.3-0.4-0.6-0.4-0.7
			c-0.1-0.1-0.1-0.2-0.1-0.4c0-0.6,0.4-1,1.2-1.1c0.6-0.1,1.1-0.2,1.6-0.2c0.4-0.1,0.8-0.2,1.1-0.3c0.3-0.1,0.6-0.2,0.8-0.4
			c0.2-0.2,0.5-0.4,0.7-0.6c1-0.9,1.5-2.1,1.5-3.7c0-1.4-0.4-2.6-1.3-3.4c-0.9-0.8-2-1.3-3.5-1.3c-0.7,0-1.3,0.1-1.9,0.3
			c-0.6,0.2-1,0.5-1.3,0.8c-0.2,0.2-0.4,0.5-0.4,0.8c-0.1,0.3-0.1,0.7-0.1,1.2v17.1c0,1,0.4,1.6,1.1,1.6l0.7,0.1
			c0.5,0,0.8,0.3,0.8,0.7c0,0.2-0.1,0.4-0.3,0.5c-0.2,0.1-0.5,0.2-0.7,0.2H105.4z"/>
		<path class="st0" d="M150.1,276.9c-0.7,0-1-0.2-1-0.7c0-0.2,0.1-0.3,0.2-0.4c0.1-0.1,0.3-0.2,0.5-0.2l0.8-0.1
			c0.7-0.1,1.1-0.6,1.1-1.6v-18.5c0-1-0.4-1.6-1.1-1.6l-0.6-0.1c-0.5,0-0.7-0.3-0.7-0.7c0-0.5,0.3-0.7,1-0.7h14.1h0.5
			c0.3,0,0.6,0,0.7,0.1c0.1,0.1,0.3,0.3,0.4,0.6l0.8,1.9c0.1,0.3,0.2,0.5,0.2,0.6c0,0.1,0,0.2,0,0.2c0,0.2-0.1,0.4-0.3,0.6
			c-0.2,0.1-0.4,0.2-0.6,0.2c-0.2,0-0.4,0-0.5-0.1c-0.1-0.1-0.3-0.3-0.5-0.5c-0.3-0.3-0.5-0.6-0.8-0.9c-0.3-0.2-0.5-0.4-0.9-0.6
			c-0.3-0.1-0.7-0.3-1.1-0.3c-0.4-0.1-0.9-0.1-1.4-0.1h-3.1c-0.8,0-1.4,0.1-1.6,0.4c-0.3,0.2-0.4,0.7-0.4,1.4v6.3h4.6
			c1,0,1.5,0.3,1.5,0.9c0,0.6-0.5,0.9-1.5,0.9h-2.7c-0.4,0-0.8,0-1,0c-0.2,0-0.4,0.1-0.5,0.2c-0.1,0.1-0.2,0.3-0.2,0.5
			c0,0.2-0.1,0.5-0.1,0.9v8c0,0.6,0.1,1.1,0.4,1.3c0.3,0.2,0.8,0.3,1.6,0.3h3.4c0.7,0,1.3,0,1.7-0.1c0.5,0,0.9-0.1,1.2-0.2
			c0.3-0.1,0.6-0.3,0.9-0.5c0.3-0.2,0.6-0.5,0.8-0.9c0.4-0.5,0.7-0.8,0.8-0.9c0.1-0.1,0.3-0.1,0.6-0.1c0.3,0,0.5,0.1,0.6,0.2
			c0.2,0.1,0.2,0.3,0.2,0.5c0,0.1,0,0.2,0,0.3c0,0.1-0.1,0.2-0.1,0.4l-1.1,2.5c-0.1,0.2-0.2,0.4-0.2,0.5c-0.1,0.1-0.2,0.2-0.3,0.3
			c-0.1,0.1-0.3,0.1-0.4,0.1c-0.2,0-0.4,0-0.7,0H150.1z"/>
		<path class="st0" d="M190.1,276.9c-0.5,0-0.8,0-1-0.1c-0.2-0.1-0.3-0.3-0.3-0.6c0-0.4,0.3-0.7,0.9-0.8c0.6-0.1,1-0.3,1.2-0.4
			c0.2-0.2,0.4-0.5,0.6-1l7.5-21.1c0.2-0.5,0.4-0.8,0.6-1c0.2-0.2,0.5-0.2,0.8-0.2c0.7,0,1.1,0.4,1.4,1.1l7.6,21.2
			c0.3,0.8,0.8,1.2,1.5,1.4l0.6,0.1c0.5,0.1,0.7,0.4,0.7,0.7c0,0.5-0.4,0.7-1.3,0.7H204c-0.5,0-0.9,0-1-0.1
			c-0.2-0.1-0.3-0.3-0.3-0.6c0-0.4,0.3-0.7,0.9-0.8l0.8-0.1c0.5-0.1,0.8-0.4,0.8-0.9c0-0.2-0.1-0.5-0.2-0.9l-1.2-3.6
			c-0.1-0.3-0.2-0.5-0.2-0.6c-0.1-0.1-0.2-0.3-0.3-0.3c-0.1-0.1-0.3-0.1-0.5-0.1c-0.2,0-0.5,0-0.8,0h-4.6c-0.4,0-0.7,0-0.9,0
			c-0.2,0-0.4,0.1-0.5,0.2c-0.1,0.1-0.3,0.2-0.3,0.4c-0.1,0.2-0.2,0.4-0.3,0.7l-1.2,3.7c-0.1,0.2-0.1,0.4-0.1,0.6
			c0,0.6,0.4,0.9,1.3,1c0.4,0,0.7,0.1,0.9,0.2c0.1,0.1,0.2,0.3,0.2,0.5c0,0.2-0.1,0.4-0.3,0.5c-0.2,0.1-0.5,0.1-0.9,0.1H190.1z
			 M202.8,266.9l-3.3-9.4l-3.2,9.4H202.8z"/>
		<path class="st0" d="M235.2,276.9c-0.7,0-1-0.2-1-0.7c0-0.2,0.1-0.3,0.2-0.4c0.1-0.1,0.3-0.2,0.5-0.2l0.8-0.1
			c0.7-0.1,1.1-0.6,1.1-1.6v-18.5c0-1-0.4-1.6-1.1-1.6l-0.7-0.1c-0.5,0-0.8-0.3-0.8-0.7c0-0.5,0.3-0.7,1-0.7h7.3c0.7,0,1,0.2,1,0.7
			c0,0.4-0.3,0.6-0.8,0.7l-0.7,0.1c-0.8,0.1-1.1,0.6-1.1,1.6v18c0,0.6,0,1,0.1,1.2c0.1,0.2,0.2,0.3,0.5,0.4c0.2,0.1,0.4,0.2,0.6,0.2
			c0.2,0,0.6,0,1.3,0h3.1c0.6,0,1.2,0,1.6-0.1c0.4,0,0.8-0.1,1.2-0.3c0.3-0.1,0.6-0.3,0.9-0.6c0.3-0.2,0.6-0.6,0.8-1
			c0.3-0.4,0.5-0.7,0.6-0.8c0.1-0.1,0.3-0.1,0.5-0.1c0.2,0,0.4,0.1,0.6,0.2c0.2,0.1,0.2,0.3,0.2,0.4c0,0.1,0,0.2,0,0.3
			c0,0.1-0.1,0.2-0.2,0.5l-1.1,2.5c-0.2,0.4-0.4,0.7-0.6,0.8c-0.2,0.1-0.6,0.2-1.2,0.2H235.2z"/>
		<path class="st0" d="M276,276.9c-0.7,0-1-0.2-1-0.7c0-0.2,0.1-0.3,0.2-0.4c0.1-0.1,0.3-0.2,0.5-0.2l0.7-0.1
			c0.8-0.1,1.1-0.6,1.1-1.6v-18.5c0-1-0.4-1.6-1.1-1.6l-0.6-0.1c-0.5,0-0.7-0.3-0.7-0.7c0-0.5,0.3-0.7,1-0.7h7.1c0.7,0,1,0.2,1,0.7
			c0,0.4-0.2,0.6-0.7,0.7l-0.7,0.1c-0.7,0.1-1.1,0.6-1.1,1.6v18.5c0,1,0.4,1.6,1.1,1.6l0.7,0.1c0.5,0,0.8,0.3,0.8,0.7
			c0,0.5-0.4,0.7-1,0.7H276z"/>
		<path class="st0" d="M313.3,276.9c-0.7,0-1-0.2-1-0.7c0-0.4,0.3-0.6,0.8-0.7l0.8-0.1c0.8,0,1.1-0.6,1.1-1.6v-17.8
			c0-0.9-0.1-1.4-0.3-1.6c-0.2-0.2-0.8-0.3-1.6-0.3h-1.4c-0.7,0-1.3,0.2-1.9,0.5c-0.6,0.4-1.1,0.9-1.7,1.8c-0.2,0.3-0.3,0.5-0.5,0.5
			c-0.1,0.1-0.3,0.1-0.5,0.1c-0.2,0-0.5-0.1-0.6-0.2c-0.2-0.1-0.3-0.3-0.3-0.5c0-0.1,0-0.2,0.1-0.3c0-0.1,0.1-0.2,0.1-0.4l1.2-2.6
			l0.2-0.3c0.2-0.3,0.4-0.4,0.8-0.4h0.6h15.8h0.6c0.3,0,0.5,0,0.7,0.1c0.2,0.1,0.3,0.3,0.4,0.6l1.1,2.5l0.2,0.4
			c0.1,0.2,0.1,0.3,0.1,0.4c0,0.2-0.1,0.4-0.3,0.6c-0.2,0.1-0.4,0.2-0.6,0.2c-0.2,0-0.4,0-0.5-0.1c-0.1-0.1-0.3-0.3-0.5-0.5
			c-0.5-0.6-0.8-1-1-1.2c-0.2-0.2-0.4-0.4-0.6-0.5c-0.6-0.4-1.3-0.6-2.2-0.6h-1.5c-0.7,0-1.2,0.1-1.4,0.4c-0.2,0.2-0.3,0.8-0.3,1.6
			v17.8c0,1,0.4,1.6,1.1,1.6l0.8,0.1c0.5,0,0.8,0.3,0.8,0.7c0,0.5-0.4,0.7-1,0.7H313.3z"/>
		<path class="st0" d="M369.9,277.3c-0.5,0-0.8-0.2-0.8-0.6c-0.1-0.6-0.1-1.1-0.3-1.4c-0.1-0.3-0.4-0.7-0.7-1.2l-12.6-16.1v15.7
			c0,1,0.4,1.6,1.1,1.6l0.7,0.1c0.5,0,0.7,0.3,0.7,0.7c0,0.5-0.4,0.7-1,0.7h-5.6c-0.7,0-1-0.2-1-0.7c0-0.4,0.2-0.6,0.7-0.7l0.7-0.1
			c0.7-0.1,1.1-0.6,1.1-1.6v-19c-0.4-0.5-0.6-0.8-0.8-0.9c-0.2-0.1-0.4-0.2-0.7-0.3l-0.6-0.1c-0.6,0-0.8-0.3-0.8-0.7
			c0-0.3,0.1-0.5,0.3-0.6c0.2-0.1,0.5-0.2,0.9-0.2h3c0.3,0,0.6,0,0.8,0c0.2,0,0.4,0.1,0.5,0.1c0.1,0,0.3,0.1,0.4,0.3
			c0.1,0.1,0.2,0.3,0.4,0.4l12.7,16.3v-14c0-1-0.4-1.6-1.1-1.6l-0.6-0.1c-0.5,0-0.8-0.3-0.8-0.7c0-0.5,0.3-0.7,1-0.7h5.6
			c0.7,0,1,0.2,1,0.7c0,0.2-0.1,0.3-0.2,0.5c-0.1,0.1-0.3,0.2-0.5,0.2l-0.7,0.1c-0.7,0.1-1.1,0.6-1.1,1.6V276c0,0.5,0,0.9-0.1,1.1
			c-0.1,0.2-0.3,0.2-0.6,0.2H369.9z"/>
		<path class="st0" d="M397,276.9c-0.5,0-0.8,0-1-0.1c-0.2-0.1-0.3-0.3-0.3-0.6c0-0.4,0.3-0.7,0.9-0.8c0.6-0.1,1-0.3,1.2-0.4
			c0.2-0.2,0.4-0.5,0.6-1l7.5-21.1c0.2-0.5,0.4-0.8,0.6-1c0.2-0.2,0.5-0.2,0.8-0.2c0.7,0,1.1,0.4,1.4,1.1l7.6,21.2
			c0.3,0.8,0.8,1.2,1.5,1.4l0.6,0.1c0.5,0.1,0.7,0.4,0.7,0.7c0,0.5-0.4,0.7-1.3,0.7h-6.9c-0.5,0-0.9,0-1-0.1
			c-0.2-0.1-0.3-0.3-0.3-0.6c0-0.4,0.3-0.7,0.9-0.8l0.8-0.1c0.5-0.1,0.8-0.4,0.8-0.9c0-0.2-0.1-0.5-0.2-0.9l-1.2-3.6
			c-0.1-0.3-0.2-0.5-0.2-0.6c-0.1-0.1-0.2-0.3-0.3-0.3c-0.1-0.1-0.3-0.1-0.5-0.1c-0.2,0-0.5,0-0.8,0h-4.6c-0.4,0-0.7,0-0.9,0
			c-0.2,0-0.4,0.1-0.5,0.2c-0.1,0.1-0.3,0.2-0.3,0.4c-0.1,0.2-0.2,0.4-0.3,0.7l-1.2,3.7c-0.1,0.2-0.1,0.4-0.1,0.6
			c0,0.6,0.4,0.9,1.3,1c0.4,0,0.7,0.1,0.9,0.2c0.1,0.1,0.2,0.3,0.2,0.5c0,0.2-0.1,0.4-0.3,0.5c-0.2,0.1-0.5,0.1-0.9,0.1H397z
			 M409.7,266.9l-3.3-9.4l-3.2,9.4H409.7z M407.2,249.2c-0.3,0-0.4,0-0.5-0.1c-0.1,0-0.1-0.1-0.1-0.2c0,0,0-0.1,0-0.1
			c0,0,0-0.1,0-0.3l0.6-3.2c0.1-0.3,0.1-0.5,0.2-0.6c0.1-0.1,0.2-0.1,0.4-0.1h2.6c0.6,0,0.9,0.1,0.9,0.4c0,0.1-0.1,0.3-0.3,0.6
			l-2.3,3.2c-0.2,0.3-0.3,0.4-0.4,0.5c-0.1,0.1-0.3,0.1-0.5,0.1L407.2,249.2z"/>
		<path class="st0" d="M470.4,276.9c-0.7,0-1-0.2-1-0.7c0-0.2,0.1-0.3,0.2-0.4c0.1-0.1,0.3-0.2,0.5-0.2l0.7-0.1
			c0.8-0.1,1.1-0.6,1.1-1.6v-18.6c0-1-0.4-1.6-1.1-1.6l-0.6-0.1c-0.5,0-0.7-0.3-0.7-0.7c0-0.5,0.3-0.7,1-0.7h7.1c0.7,0,1,0.2,1,0.7
			c0,0.4-0.2,0.6-0.7,0.7l-0.7,0.1c-0.7,0.1-1.1,0.6-1.1,1.6v18.6c0,1,0.4,1.6,1.1,1.6l0.7,0.1c0.5,0,0.7,0.3,0.7,0.7
			c0,0.5-0.4,0.7-1,0.7H470.4z M487.6,276.9c-0.3,0-0.5,0-0.7,0c-0.2,0-0.4,0-0.5-0.1c-0.1-0.1-0.3-0.2-0.4-0.3
			c-0.1-0.1-0.3-0.3-0.5-0.6l-8.5-11c-0.4-0.4-0.6-0.8-0.6-1.1c0-0.1,0-0.3,0.1-0.4c0.1-0.1,0.2-0.3,0.5-0.7l6.6-7.7
			c0.2-0.2,0.4-0.5,0.4-0.8c0-0.2-0.1-0.4-0.2-0.5c-0.2-0.1-0.4-0.2-0.8-0.2c-0.6,0-1-0.3-1-0.7c0-0.5,0.4-0.7,1.3-0.7h5.3h0.5
			c0.6,0,1,0.2,1,0.7c0,0.4-0.4,0.7-1,0.8c-0.5,0.1-1,0.2-1.4,0.4c-0.4,0.2-0.8,0.6-1.2,1.1l-6.3,7.4l9.1,11.7
			c0.4,0.4,0.7,0.8,1,0.9c0.3,0.2,0.6,0.3,1,0.3c0.8,0.1,1.1,0.3,1.1,0.8c0,0.3-0.1,0.5-0.3,0.6c-0.2,0.1-0.5,0.1-1,0.1H487.6z"/>
		<path class="st0" d="M514.6,276.9c-0.5,0-0.8,0-1-0.1c-0.2-0.1-0.3-0.3-0.3-0.6c0-0.4,0.3-0.7,0.9-0.8c0.6-0.1,1-0.3,1.2-0.4
			c0.2-0.2,0.4-0.5,0.6-1l7.5-21.1c0.2-0.5,0.4-0.8,0.6-1c0.2-0.2,0.5-0.2,0.8-0.2c0.7,0,1.1,0.4,1.4,1.1l7.6,21.2
			c0.3,0.8,0.8,1.2,1.5,1.4l0.6,0.1c0.5,0.1,0.7,0.4,0.7,0.7c0,0.5-0.4,0.7-1.3,0.7h-6.9c-0.5,0-0.9,0-1-0.1
			c-0.2-0.1-0.3-0.3-0.3-0.6c0-0.4,0.3-0.7,0.9-0.8l0.8-0.1c0.5-0.1,0.8-0.4,0.8-0.9c0-0.2-0.1-0.5-0.2-0.9l-1.2-3.6
			c-0.1-0.3-0.2-0.5-0.2-0.6c-0.1-0.1-0.2-0.3-0.3-0.3c-0.1-0.1-0.3-0.1-0.5-0.1c-0.2,0-0.5,0-0.8,0h-4.6c-0.4,0-0.7,0-0.9,0
			c-0.2,0-0.4,0.1-0.5,0.2c-0.1,0.1-0.3,0.2-0.3,0.4c-0.1,0.2-0.2,0.4-0.3,0.7l-1.2,3.7c-0.1,0.2-0.1,0.4-0.1,0.6
			c0,0.6,0.4,0.9,1.3,1c0.4,0,0.7,0.1,0.9,0.2c0.1,0.1,0.2,0.3,0.2,0.5c0,0.2-0.1,0.4-0.3,0.5c-0.2,0.1-0.5,0.1-0.9,0.1H514.6z
			 M527.3,266.9l-3.3-9.4l-3.2,9.4H527.3z"/>
		<path class="st0" d="M578.6,277.3c-0.5,0-0.8-0.2-0.8-0.6c-0.1-0.6-0.1-1.1-0.3-1.4c-0.1-0.3-0.4-0.7-0.7-1.2l-12.6-16.1v15.7
			c0,1,0.4,1.6,1.1,1.6l0.7,0.1c0.5,0,0.7,0.3,0.7,0.7c0,0.5-0.4,0.7-1,0.7h-5.6c-0.7,0-1-0.2-1-0.7c0-0.4,0.2-0.6,0.7-0.7l0.7-0.1
			c0.7-0.1,1.1-0.6,1.1-1.6v-19c-0.4-0.5-0.6-0.8-0.8-0.9c-0.2-0.1-0.4-0.2-0.7-0.3l-0.6-0.1c-0.6,0-0.8-0.3-0.8-0.7
			c0-0.3,0.1-0.5,0.3-0.6s0.5-0.2,0.9-0.2h3c0.3,0,0.6,0,0.8,0c0.2,0,0.4,0.1,0.5,0.1c0.1,0,0.3,0.1,0.4,0.3
			c0.1,0.1,0.2,0.3,0.4,0.4l12.7,16.3v-14c0-1-0.4-1.6-1.1-1.6l-0.6-0.1c-0.5,0-0.8-0.3-0.8-0.7c0-0.5,0.3-0.7,1-0.7h5.6
			c0.7,0,1,0.2,1,0.7c0,0.2-0.1,0.3-0.2,0.5c-0.1,0.1-0.3,0.2-0.5,0.2l-0.7,0.1c-0.7,0.1-1.1,0.6-1.1,1.6V276c0,0.5,0,0.9-0.1,1.1
			c-0.1,0.2-0.3,0.2-0.6,0.2H578.6z"/>
		<path class="st0" d="M625.5,255.8c0.1,0.2,0.1,0.4,0.1,0.4c0,0.1,0,0.1,0,0.2c0,0.2-0.1,0.4-0.3,0.6c-0.2,0.2-0.4,0.3-0.6,0.3
			c-0.2,0-0.3,0-0.5-0.1c-0.1-0.1-0.4-0.3-0.6-0.6c-1.1-1.1-2.1-1.9-3-2.4c-0.9-0.5-2-0.7-3.1-0.7c-1.4,0-2.6,0.3-3.7,1
			c-1.1,0.7-1.9,1.6-2.5,2.9c-0.5,1-0.8,2-1.1,3.2c-0.3,1.2-0.4,2.4-0.4,3.7c0,1.6,0.2,3.1,0.6,4.4c0.4,1.3,0.9,2.4,1.6,3.3
			c0.7,0.9,1.6,1.6,2.6,2.1c1,0.5,2.1,0.7,3.4,0.7c1.1,0,2.2-0.2,3.1-0.6c1-0.4,1.9-1,2.8-1.9c0.4-0.4,0.8-0.6,1-0.6
			c0.3,0,0.5,0.1,0.7,0.3c0.2,0.2,0.3,0.4,0.3,0.7c0,0.8-0.8,1.6-2.4,2.6c-1.8,1.2-4,1.7-6.6,1.7c-1.8,0-3.4-0.3-4.9-0.9
			c-1.5-0.6-2.7-1.5-3.8-2.6c-1-1.1-1.9-2.5-2.4-4c-0.6-1.6-0.8-3.3-0.8-5.2c0-2,0.3-3.7,0.8-5.3c0.6-1.6,1.4-2.9,2.4-4.1
			c1-1.1,2.3-2,3.8-2.6c1.5-0.6,3.1-0.9,4.9-0.9c0.6,0,1.2,0,1.9,0.1c0.7,0.1,1.3,0.2,1.9,0.4c0.3,0.1,0.5,0.1,0.7,0.1
			c0.1,0,0.2,0,0.3-0.1c0.1,0,0.2-0.1,0.5-0.3c0.3-0.2,0.6-0.4,0.8-0.4c0.5,0,0.8,0.3,1,0.9L625.5,255.8z"/>
		<path class="st0" d="M649.3,276.9c-0.7,0-1-0.2-1-0.7c0-0.2,0.1-0.3,0.2-0.4c0.1-0.1,0.3-0.2,0.5-0.2l0.8-0.1
			c0.7-0.1,1.1-0.6,1.1-1.6v-18.5c0-1-0.4-1.6-1.1-1.6l-0.6-0.1c-0.5,0-0.7-0.3-0.7-0.7c0-0.5,0.3-0.7,1-0.7h14.1h0.5
			c0.3,0,0.6,0,0.7,0.1c0.1,0.1,0.3,0.3,0.4,0.6l0.8,1.9c0.1,0.3,0.2,0.5,0.2,0.6c0,0.1,0,0.2,0,0.2c0,0.2-0.1,0.4-0.3,0.6
			c-0.2,0.1-0.4,0.2-0.6,0.2c-0.2,0-0.4,0-0.5-0.1c-0.1-0.1-0.3-0.3-0.5-0.5c-0.3-0.3-0.5-0.6-0.8-0.9c-0.3-0.2-0.5-0.4-0.9-0.6
			c-0.3-0.1-0.7-0.3-1.1-0.3c-0.4-0.1-0.9-0.1-1.4-0.1h-3.1c-0.8,0-1.4,0.1-1.6,0.4c-0.3,0.2-0.4,0.7-0.4,1.4v6.3h4.6
			c1,0,1.5,0.3,1.5,0.9c0,0.6-0.5,0.9-1.5,0.9h-2.7c-0.4,0-0.8,0-1,0c-0.2,0-0.4,0.1-0.5,0.2c-0.1,0.1-0.2,0.3-0.2,0.5
			c0,0.2-0.1,0.5-0.1,0.9v8c0,0.6,0.1,1.1,0.4,1.3c0.3,0.2,0.8,0.3,1.6,0.3h3.4c0.7,0,1.3,0,1.7-0.1c0.5,0,0.9-0.1,1.2-0.2
			c0.3-0.1,0.6-0.3,0.9-0.5c0.3-0.2,0.6-0.5,0.8-0.9c0.4-0.5,0.7-0.8,0.8-0.9c0.1-0.1,0.3-0.1,0.6-0.1c0.3,0,0.5,0.1,0.6,0.2
			c0.2,0.1,0.2,0.3,0.2,0.5c0,0.1,0,0.2,0,0.3c0,0.1-0.1,0.2-0.1,0.4l-1.1,2.5c-0.1,0.2-0.2,0.4-0.2,0.5c-0.1,0.1-0.2,0.2-0.3,0.3
			c-0.1,0.1-0.3,0.1-0.4,0.1c-0.2,0-0.4,0-0.7,0H649.3z"/>
		<path class="st0" d="M689.8,276.9c-0.7,0-1-0.2-1-0.7c0-0.2,0.1-0.3,0.2-0.4c0.1-0.1,0.3-0.2,0.5-0.2l0.8-0.1
			c0.7-0.1,1.1-0.6,1.1-1.6v-18.5c0-1-0.4-1.6-1.1-1.6l-0.7-0.1c-0.5,0-0.8-0.3-0.8-0.7c0-0.5,0.3-0.7,1-0.7h7.3c0.7,0,1,0.2,1,0.7
			c0,0.4-0.3,0.6-0.8,0.7l-0.7,0.1c-0.8,0.1-1.1,0.6-1.1,1.6v18c0,0.6,0,1,0.1,1.2c0.1,0.2,0.2,0.3,0.5,0.4c0.2,0.1,0.4,0.2,0.6,0.2
			c0.2,0,0.6,0,1.3,0h3.1c0.6,0,1.2,0,1.6-0.1c0.4,0,0.8-0.1,1.2-0.3c0.3-0.1,0.6-0.3,0.9-0.6c0.3-0.2,0.6-0.6,0.8-1
			c0.3-0.4,0.5-0.7,0.6-0.8c0.1-0.1,0.3-0.1,0.5-0.1c0.2,0,0.4,0.1,0.6,0.2c0.2,0.1,0.2,0.3,0.2,0.4c0,0.1,0,0.2,0,0.3
			c0,0.1-0.1,0.2-0.2,0.5l-1.1,2.5c-0.2,0.4-0.4,0.7-0.6,0.8c-0.2,0.1-0.6,0.2-1.2,0.2H689.8z"/>
		<path class="st0" d="M730,276.9c-0.5,0-0.8,0-1-0.1c-0.2-0.1-0.3-0.3-0.3-0.6c0-0.4,0.3-0.7,0.9-0.8c0.6-0.1,1-0.3,1.2-0.4
			c0.2-0.2,0.4-0.5,0.6-1l7.5-21.1c0.2-0.5,0.4-0.8,0.6-1c0.2-0.2,0.5-0.2,0.8-0.2c0.7,0,1.1,0.4,1.4,1.1l7.6,21.2
			c0.3,0.8,0.8,1.2,1.5,1.4l0.6,0.1c0.5,0.1,0.7,0.4,0.7,0.7c0,0.5-0.4,0.7-1.3,0.7h-6.9c-0.5,0-0.9,0-1-0.1
			c-0.2-0.1-0.3-0.3-0.3-0.6c0-0.4,0.3-0.7,0.9-0.8l0.8-0.1c0.5-0.1,0.8-0.4,0.8-0.9c0-0.2-0.1-0.5-0.2-0.9l-1.2-3.6
			c-0.1-0.3-0.2-0.5-0.2-0.6c-0.1-0.1-0.2-0.3-0.3-0.3c-0.1-0.1-0.3-0.1-0.5-0.1c-0.2,0-0.5,0-0.8,0h-4.6c-0.4,0-0.7,0-0.9,0
			c-0.2,0-0.4,0.1-0.5,0.2c-0.1,0.1-0.3,0.2-0.3,0.4c-0.1,0.2-0.2,0.4-0.3,0.7l-1.2,3.7c-0.1,0.2-0.1,0.4-0.1,0.6
			c0,0.6,0.4,0.9,1.3,1c0.4,0,0.7,0.1,0.9,0.2c0.1,0.1,0.2,0.3,0.2,0.5c0,0.2-0.1,0.4-0.3,0.5s-0.5,0.1-0.9,0.1H730z M742.7,266.9
			l-3.3-9.4l-3.2,9.4H742.7z M740.2,249.2c-0.3,0-0.4,0-0.5-0.1c-0.1,0-0.1-0.1-0.1-0.2c0,0,0-0.1,0-0.1c0,0,0-0.1,0-0.3l0.6-3.2
			c0.1-0.3,0.1-0.5,0.2-0.6c0.1-0.1,0.2-0.1,0.4-0.1h2.6c0.6,0,0.9,0.1,0.9,0.4c0,0.1-0.1,0.3-0.3,0.6l-2.3,3.2
			c-0.2,0.3-0.3,0.4-0.4,0.5c-0.1,0.1-0.3,0.1-0.5,0.1L740.2,249.2z"/>
		<path class="st0" d="M775.1,276.9c-0.7,0-1-0.2-1-0.7c0-0.2,0.1-0.3,0.2-0.4c0.1-0.1,0.3-0.2,0.5-0.2l0.7-0.1
			c0.8-0.1,1.1-0.6,1.1-1.6v-17.1c0-0.6,0-1-0.1-1.2c-0.1-0.2-0.3-0.3-0.8-0.4c-0.6-0.1-0.9-0.3-0.9-0.7c0-0.4,0.5-0.9,1.4-1.3
			c1-0.5,2.3-0.8,3.7-1.1c1.4-0.3,2.9-0.4,4.5-0.4c3,0,5.2,0.6,6.8,1.7c1.6,1.2,2.4,2.8,2.4,5c0,1.8-0.6,3.3-1.7,4.4
			c-1.1,1.2-2.7,1.9-4.7,2.1l6.8,9.4c0.2,0.2,0.3,0.4,0.5,0.6c0.1,0.1,0.2,0.3,0.4,0.3c0.1,0.1,0.3,0.1,0.5,0.2
			c0.2,0,0.4,0.1,0.7,0.1c0.7,0,1,0.3,1,0.7c0,0.3-0.1,0.5-0.3,0.6c-0.2,0.1-0.5,0.1-1.1,0.1h-3.3c-0.4,0-0.6,0-0.8,0
			c-0.2,0-0.4-0.1-0.5-0.1c-0.1-0.1-0.3-0.2-0.4-0.3c-0.1-0.1-0.3-0.4-0.5-0.6l-7.2-10.1c-0.2-0.3-0.4-0.6-0.4-0.7
			c-0.1-0.1-0.1-0.2-0.1-0.4c0-0.6,0.4-1,1.2-1.1c0.6-0.1,1.1-0.2,1.6-0.2c0.4-0.1,0.8-0.2,1.1-0.3c0.3-0.1,0.6-0.2,0.8-0.4
			c0.2-0.2,0.5-0.4,0.7-0.6c1-0.9,1.5-2.1,1.5-3.7c0-1.4-0.4-2.6-1.3-3.4c-0.9-0.8-2-1.3-3.5-1.3c-0.7,0-1.3,0.1-1.9,0.3
			c-0.6,0.2-1,0.5-1.3,0.8c-0.2,0.2-0.4,0.5-0.4,0.8c-0.1,0.3-0.1,0.7-0.1,1.2v17.1c0,1,0.4,1.6,1.1,1.6l0.7,0.1
			c0.5,0,0.8,0.3,0.8,0.7c0,0.2-0.1,0.4-0.3,0.5c-0.2,0.1-0.5,0.2-0.7,0.2H775.1z"/>
		<path class="st0" d="M819.9,276.9c-0.7,0-1-0.2-1-0.7c0-0.2,0.1-0.3,0.2-0.4c0.1-0.1,0.3-0.2,0.5-0.2l0.7-0.1
			c0.8-0.1,1.1-0.6,1.1-1.6v-18.5c0-1-0.4-1.6-1.1-1.6l-0.6-0.1c-0.5,0-0.7-0.3-0.7-0.7c0-0.5,0.3-0.7,1-0.7h7.1c0.7,0,1,0.2,1,0.7
			c0,0.4-0.2,0.6-0.7,0.7l-0.7,0.1c-0.7,0.1-1.1,0.6-1.1,1.6v18.5c0,1,0.4,1.6,1.1,1.6l0.7,0.1c0.5,0,0.8,0.3,0.8,0.7
			c0,0.5-0.4,0.7-1,0.7H819.9z"/>
		<path class="st0" d="M851.4,276.9c-0.5,0-0.8,0-1-0.1c-0.2-0.1-0.3-0.3-0.3-0.6c0-0.4,0.3-0.7,0.9-0.8c0.6-0.1,1-0.3,1.2-0.4
			c0.2-0.2,0.4-0.5,0.6-1l7.5-21.1c0.2-0.5,0.4-0.8,0.6-1c0.2-0.2,0.5-0.2,0.8-0.2c0.7,0,1.1,0.4,1.4,1.1l7.6,21.2
			c0.3,0.8,0.8,1.2,1.5,1.4l0.6,0.1c0.5,0.1,0.7,0.4,0.7,0.7c0,0.5-0.4,0.7-1.3,0.7h-6.9c-0.5,0-0.9,0-1-0.1
			c-0.2-0.1-0.3-0.3-0.3-0.6c0-0.4,0.3-0.7,0.9-0.8l0.8-0.1c0.5-0.1,0.8-0.4,0.8-0.9c0-0.2-0.1-0.5-0.2-0.9l-1.2-3.6
			c-0.1-0.3-0.2-0.5-0.2-0.6c-0.1-0.1-0.2-0.3-0.3-0.3c-0.1-0.1-0.3-0.1-0.5-0.1c-0.2,0-0.5,0-0.8,0h-4.6c-0.4,0-0.7,0-0.9,0
			c-0.2,0-0.4,0.1-0.5,0.2c-0.1,0.1-0.3,0.2-0.3,0.4c-0.1,0.2-0.2,0.4-0.3,0.7l-1.2,3.7c-0.1,0.2-0.1,0.4-0.1,0.6
			c0,0.6,0.4,0.9,1.3,1c0.4,0,0.7,0.1,0.9,0.2c0.1,0.1,0.2,0.3,0.2,0.5c0,0.2-0.1,0.4-0.3,0.5c-0.2,0.1-0.5,0.1-0.9,0.1H851.4z
			 M864.1,266.9l-3.3-9.4l-3.2,9.4H864.1z"/>
	</g>
	<g>
		<g>
			<path class="st1" d="M563.7,175.1c4,0,7.3-3.3,7.3-7.3V7.3c0-4-3.3-7.3-7.3-7.3H403.1c-4,0-7.3,3.3-7.3,7.3v200.6
				c0,4,2.2,4.9,4.9,1.9l26.9-29.3c2.7-2.9,7.7-5.3,12.2-5.3H563.7z"/>
		</g>
		<path class="st0" d="M4.9,139.2c-1.9,0-3.2-0.2-3.9-0.6c-0.7-0.4-1-1.2-1-2.4c0-1.9,1.2-3.1,3.6-3.5c2.2-0.5,3.8-1.2,4.6-1.9
			c0.8-0.7,1.6-2.2,2.4-4.3L40,36.3c0.7-2.1,1.5-3.5,2.2-4.2c0.7-0.7,1.8-1,3.3-1c2.6,0,4.5,1.6,5.6,4.8l29.8,90.8
			c1.1,3.3,3,5.2,5.9,5.9l2.4,0.6c1.9,0.5,2.9,1.5,2.9,3c0,2.1-1.7,3.2-5.2,3.2H59.5c-2,0-3.4-0.2-4.1-0.6c-0.7-0.4-1.1-1.2-1.1-2.4
			c0-1.9,1.2-3,3.6-3.3l3.2-0.5c2-0.3,3-1.5,3-3.6c0-0.8-0.3-2.1-0.8-3.6l-4.8-15.5c-0.3-1.2-0.6-2.1-1-2.7
			c-0.3-0.6-0.7-1.1-1.2-1.4c-0.5-0.3-1.1-0.5-2-0.6c-0.8-0.1-2-0.1-3.3-0.1H33.2c-1.5,0-2.6,0.1-3.5,0.2c-0.8,0.1-1.6,0.4-2.1,0.8
			c-0.6,0.4-1,1-1.3,1.8c-0.3,0.8-0.7,1.8-1.1,3.1l-4.8,16c-0.3,0.9-0.5,1.7-0.5,2.4c0,2.4,1.6,3.8,4.9,4.1c1.7,0.2,2.8,0.5,3.4,0.9
			c0.6,0.4,0.9,1.2,0.9,2.3c0,1-0.3,1.8-1,2.2c-0.7,0.4-1.9,0.6-3.7,0.6H4.9z M54.9,96.9l-13-40l-12.7,40H54.9z"/>
		<path class="st0" d="M103.4,139.2c-1.9,0-2.9-1-2.9-2.9c0-1.7,1-2.7,2.9-2.9l2.5-0.2c1.5-0.2,2.4-0.8,2.9-1.6
			c0.5-0.8,0.7-2.6,0.7-5.3V87.7c0-2.8-0.3-4.6-0.9-5.3c-0.6-0.7-2.2-1.1-4.7-1.2c-2.1-0.2-3.2-1.2-3.2-2.9c0-0.7,0.2-1.2,0.7-1.7
			c0.4-0.4,1.4-1,2.9-1.5l15.2-6.4c0.7-0.2,1.2-0.3,1.5-0.3c1,0,1.7,0.3,2,1c0.3,0.7,0.5,2,0.5,4.1v6.3c3.5-7.8,8.9-11.7,16.1-11.7
			c2.9,0,5.5,0.7,7.7,2c2.2,1.4,3.3,2.8,3.3,4.4c0,1.1-0.5,2.3-1.5,3.4l-3.2,3.7c-1.1,1.2-2,1.9-2.5,1.9c-0.7,0-1.2-0.2-1.5-0.5
			l-2.7-1.7c-1.2-0.8-2.6-1.2-4.1-1.2c-3.3,0-5.9,1.6-7.9,4.9c-2,3.3-3,7.7-3,13.2v28.1c0,2.7,0.2,4.5,0.6,5.3
			c0.4,0.8,1.3,1.4,2.8,1.6l3.4,0.2c1.9,0.2,2.9,1.2,2.9,2.9c0,0.9-0.3,1.6-0.8,2.1c-0.6,0.5-1.3,0.8-2.2,0.8H103.4z"/>
		<path class="st0" d="M166.7,82.5c-0.6-1.2-1-2.2-1.4-2.9c-0.3-0.7-0.7-1.2-1.2-1.7c-0.5-0.5-1-0.8-1.7-1c-0.7-0.2-1.6-0.4-2.7-0.7
			c-2-0.3-3-1.3-3-2.9c0-1.2,0.3-2.1,1-2.5c0.7-0.4,2.1-0.6,4.4-0.6h23.7c1.9,0,3.2,0.2,3.9,0.7c0.7,0.5,1,1.2,1,2.2
			c0,1.7-1.2,2.7-3.6,3l-2.2,0.5c-2.3,0.3-3.4,1.4-3.4,3.2c0,1.1,0.5,3.3,1.5,6.4l14.1,36.3l15.2-40.2c0.3-0.8,0.5-1.7,0.5-2.7
			s-0.3-1.8-1-2.3c-0.7-0.5-1.9-0.9-3.6-1.1c-2.4-0.3-3.6-1.4-3.6-3c0-1.1,0.3-1.9,1-2.4c0.7-0.4,1.9-0.7,3.6-0.7h17.1
			c1.9,0,3.2,0.2,4,0.6c0.7,0.4,1.1,1.2,1.1,2.3c0,1.5-1,2.5-3,3l-2.7,0.5c-1,0.2-1.9,0.8-2.5,1.6c-0.7,0.8-1.4,2.2-2.2,4.2
			l-21.9,53.7c-1.2,3.2-3,4.7-5.3,4.7c-1.2,0-2.3-0.3-3-1c-0.8-0.7-1.6-2-2.4-3.9L166.7,82.5z"/>
		<path class="st0" d="M242,139.2c-1.9,0-2.9-1-2.9-2.9c0-1.7,1-2.7,2.9-2.9l2.5-0.2c1.5-0.2,2.4-0.8,2.8-1.6
			c0.4-0.8,0.6-2.6,0.6-5.3V86.2c0-1.9-0.3-3.2-1-3.9c-0.7-0.7-2-1-4.1-1c-2.4-0.1-3.6-1.1-3.6-2.9c0-0.8,0.2-1.4,0.6-1.8
			c0.4-0.4,1.4-0.9,3-1.4l13.7-5.8c1.1-0.5,1.8-0.7,2-0.8c0.2-0.1,0.6-0.2,1-0.2c1.2,0,2.1,0.4,2.5,1.2c0.4,0.8,0.6,2.4,0.6,4.9
			v51.8c0,2.7,0.2,4.5,0.7,5.3c0.5,0.8,1.4,1.4,2.9,1.6l2.5,0.2c2,0.2,3,1.2,3,2.9c0,0.9-0.3,1.6-0.8,2.1c-0.6,0.5-1.3,0.8-2.2,0.8
			H242z M264.3,40.6c0,2.7-0.9,5-2.8,6.9c-1.9,1.9-4.1,2.8-6.7,2.8c-2.8,0-5.2-0.9-7-2.8c-1.9-1.9-2.8-4.2-2.8-7
			c0-2.6,1-4.8,2.9-6.6c1.9-1.8,4.2-2.7,6.8-2.7c2.6,0,4.9,0.9,6.8,2.8C263.4,35.8,264.3,38,264.3,40.6z"/>
		<path class="st0" d="M284.8,139.2c-1.9,0-2.9-1-2.9-2.9c0-1.7,1-2.7,2.9-2.9l2.5-0.2c1.5-0.2,2.4-0.8,2.9-1.6
			c0.5-0.8,0.7-2.6,0.7-5.3V87.7c0-2.7-0.3-4.5-1-5.3c-0.7-0.8-2-1.3-4.1-1.3c-2.4,0-3.6-1-3.6-2.9c0-1.1,0.6-2,1.9-2.5l15.1-6.4
			c0.9-0.5,1.6-0.7,2-0.8c0.5-0.1,0.8-0.2,1.2-0.2c2.1,0,3.2,1.4,3.2,4.1v5.1c4-3.4,7.5-5.7,10.6-6.9c3.1-1.2,6.8-1.9,11.1-1.9
			c3.3,0,6.3,0.5,9,1.4c2.7,0.9,4.9,2.3,6.5,4.2c1.6,1.8,2.7,3.9,3.4,6.2c0.7,2.3,1,5.7,1,10.3v38.1c0,1.6,0.3,2.7,0.8,3.3
			c0.5,0.6,1.4,1,2.6,1.3l2.9,0.2c1.9,0.2,2.9,1.2,2.9,2.9c0,1.9-1,2.9-3,2.9h-26.8c-2,0-3-1-3-2.9c0-1.7,1-2.7,2.9-2.9l2.4-0.2
			c1.6-0.2,2.6-0.8,3-1.6c0.5-0.8,0.7-2.6,0.7-5.3V93.5c0-5.6-0.8-9.6-2.5-11.9c-1.6-2.3-4.4-3.4-8.4-3.4c-5,0-8.9,2-11.8,5.9
			c-2.9,4-4.3,9.3-4.3,16.1v26.1c0,2.7,0.2,4.5,0.6,5.3c0.4,0.8,1.4,1.4,3,1.6l2.2,0.2c1.9,0.2,2.9,1.2,2.9,2.9c0,1.9-1,2.9-2.9,2.9
			H284.8z"/>
		<path class="st2" d="M515.5,139.4c-1.3,0-2.3,0-3-0.1c-0.7-0.1-1.4-0.2-1.9-0.4c-0.5-0.2-1-0.5-1.4-1c-0.4-0.4-0.9-1-1.5-1.8
			l-3-3.8c-3.8,3.2-7.9,5.5-12.1,7c-4.2,1.4-9,2.2-14.5,2.2c-5.5,0-10.6-0.8-15.2-2.3c-4.6-1.5-8.5-3.7-11.7-6.6
			c-3.3-2.8-5.8-6.2-7.6-10.1c-1.8-3.9-2.7-8.3-2.7-13.1c0-7.2,2.1-13.6,6.4-19c4.3-5.4,10.1-9.3,17.4-11.7
			c-4.4-5.4-7.5-10.2-9.4-14.2c-1.9-4-2.9-7.9-2.9-11.7c0-6.7,2.3-12.1,7-16.1c4.7-4,10.9-6,18.8-6c8.9,0,15.9,1.9,20.8,5.6
			c4.9,3.7,7.4,8.9,7.4,15.7c0,2.7-0.5,5.2-1.6,7.7c-1.1,2.5-2.5,4.6-4.3,6.4c-1.8,1.8-3.9,3.3-6.3,4.4c-2.4,1.1-4.8,1.7-7.4,1.7
			c-1.4,0-2.5-0.3-3.4-1c-0.9-0.7-1.3-1.6-1.3-2.8c0-1.1,0.5-1.9,1.4-2.6l1.6-1c2.1-1.3,3.9-3,5.2-5.3c1.3-2.3,2-4.6,2-7.1
			c0-3.7-1.2-6.7-3.5-9.1c-2.3-2.3-5.3-3.5-8.9-3.5c-3.7,0-6.8,1.1-9.1,3.3c-2.3,2.2-3.5,5-3.5,8.4c0,4.6,2.3,9.9,7,15.9l33.4,44.5
			c1.1-2.8,1.8-5.4,2.3-8c0.5-2.6,0.7-4.8,0.7-6.9c0-2.3-0.4-3.9-1.2-4.8c-0.8-0.9-2.4-1.4-4.7-1.6c-1.8-0.2-3-0.5-3.7-0.9
			c-0.6-0.4-1-1.2-1-2.3c0-0.8,0.3-1.5,1-2.1c0.6-0.6,1.4-0.9,2.4-0.9l1.9,0.2h20.1l2.4-0.2c2.3,0,3.5,1,3.5,3c0,1.7-1.3,2.6-4,3
			c-1.4,0.2-2.5,0.4-3.2,0.6c-0.7,0.2-1.3,0.5-1.8,1.1c-0.4,0.6-0.7,1.5-1,2.6c-0.2,1.2-0.5,2.8-0.8,4.8c-0.4,2.7-0.9,5-1.3,7
			c-0.4,2-0.9,3.9-1.4,5.5c-0.5,1.7-1,3.2-1.7,4.6c-0.6,1.4-1.4,2.8-2.2,4.2l5.3,7c1.3,1.8,2.6,3.1,3.9,3.9c1.3,0.8,3,1.3,4.9,1.5
			c2.3,0.3,3.5,1.3,3.5,3c0,1.2-0.4,2-1.1,2.4c-0.7,0.4-2.2,0.6-4.3,0.6H515.5z M470.3,86.5c-9.2,4.7-13.7,11.6-13.7,20.8
			c0,3.5,0.6,6.8,1.8,9.8c1.2,3,3,5.6,5.2,7.8c2.2,2.2,4.9,3.9,7.9,5.2c3,1.3,6.3,1.9,9.8,1.9c3.4,0,6.4-0.6,9.1-1.7
			c2.7-1.1,5.5-3,8.6-5.7L470.3,86.5z"/>
		<path class="st0" d="M622.4,126.7c1.1-0.2,1.8-0.8,2.1-1.7c0.3-0.9,0.5-2.6,0.5-5.2V52.2v-1.6c0-2-0.2-3.3-0.7-3.9
			c-0.5-0.6-1.6-1-3.4-1.4c-1.9-0.3-2.9-1.3-2.9-2.9c0-1.8,1.3-3.4,4-4.8c4.4-2.1,9.7-3.8,16-5.1c6.3-1.3,12.6-1.9,18.9-1.9
			c10.8,0,19.3,2.3,25.5,7c6.2,4.7,9.4,11.1,9.4,19.2c0,6.6-2,12-6.1,16.2c-4.1,4.2-9.8,6.9-17.3,8.1c9.2,0.9,16.1,3.7,20.8,8.4
			c4.7,4.7,7,11.3,7,19.6c0,10.3-3.6,18.3-10.7,23.9c-7.1,5.6-17.2,8.4-30.2,8.4c-3.1,0-6.3-0.2-9.6-0.5c-3.3-0.3-6.5-0.8-9.5-1.4
			c-3-0.6-5.8-1.3-8.4-2c-2.6-0.7-4.6-1.6-6.2-2.6c-2.6-1.4-3.8-2.9-3.8-4.5c0-1.8,0.8-2.9,2.4-3.2L622.4,126.7z M641.4,119.8
			c0,2.6,0.2,4.6,0.6,6.1c0.4,1.5,1,2.7,1.8,3.5c1.2,1.2,3,2.1,5.4,2.7c2.5,0.6,5.1,1,8,1c6.4,0,11.5-2.1,15.3-6.4
			c3.8-4.3,5.7-10,5.7-17.1c0-7.7-1.9-13.6-5.8-17.7c-3.9-4.1-9.5-6.3-16.7-6.5c-3-0.1-4.9-0.4-5.8-0.9c-0.9-0.5-1.3-1.5-1.3-3.2
			c0-1.5,0.5-2.4,1.4-2.9c0.9-0.5,2.9-0.8,6-1c6.1-0.4,10.7-2.3,13.8-5.6c3.1-3.3,4.7-8,4.7-14c0-6.1-1.6-10.8-4.8-14.1
			c-3.2-3.3-7.7-4.9-13.6-4.9c-2.8,0-5.3,0.4-7.4,1.1c-2.2,0.7-3.9,1.8-5,3c-0.9,1.1-1.4,2.2-1.8,3.4c-0.3,1.2-0.5,3.1-0.5,5.8
			V119.8z"/>
		<path class="st0" d="M745.7,96.4c2.6-1.6,4.4-3,5.4-4.4c1-1.4,1.5-3,1.5-4.9c0-3-1.1-5.7-3.4-8c-2.3-2.3-5-3.4-8.3-3.4
			c-5.5,0-9.9,2.6-13.1,7.7c-3.2,5.1-4.8,12.1-4.8,20.9c0,8.8,1.9,15.7,5.6,20.7c3.7,5,8.9,7.5,15.4,7.5c3.3,0,6.5-0.7,9.7-2.1
			c3.2-1.4,6.2-3.5,8.9-6.2c1-0.9,1.8-1.5,2.4-1.9c0.6-0.3,1.2-0.5,2-0.5c0.9,0,1.7,0.3,2.4,1c0.7,0.7,1,1.5,1,2.4
			c0,2.5-2,5.3-5.9,8.3c-6.3,5-13.8,7.5-22.5,7.5c-5.3,0-10.1-0.9-14.5-2.6c-4.3-1.8-8-4.2-11.1-7.4c-3-3.2-5.4-7-7.1-11.4
			c-1.7-4.5-2.5-9.4-2.5-14.8c0-5.4,0.8-10.4,2.5-14.8c1.6-4.5,4-8.3,7-11.5c3-3.2,6.7-5.7,10.9-7.5c4.2-1.8,8.9-2.7,14-2.7
			c7.6,0,14,2,19.3,6.1c2.6,1.9,4.6,4.1,6,6.6c1.4,2.5,2.1,4.9,2.1,7.1c0,3-2.6,6.1-7.8,9.1l-24.4,14.4c-0.9,0.6-1.6,0.9-2,1.1
			c-0.5,0.2-1,0.3-1.5,0.3c-1.1,0-2.1-0.4-2.8-1.1c-0.7-0.7-1.1-1.7-1.1-2.8c0-1,0.3-1.8,0.8-2.5c0.6-0.6,1.6-1.4,3.2-2.5
			L745.7,96.4z"/>
		<path class="st0" d="M783,139.2c-1.9,0-2.9-1-2.9-2.9c0-1.7,1-2.7,2.9-2.9l2.5-0.2c1.5-0.2,2.4-0.8,2.9-1.6
			c0.5-0.8,0.7-2.6,0.7-5.3V87.7c0-2.7-0.3-4.5-1-5.3c-0.7-0.8-2-1.3-4.1-1.3c-2.4,0-3.6-1-3.6-2.9c0-1.1,0.6-2,1.9-2.5l15.1-6.4
			c0.9-0.5,1.6-0.7,2-0.8c0.5-0.1,0.8-0.2,1.2-0.2c2.1,0,3.2,1.4,3.2,4.1v5.1c4-3.4,7.5-5.7,10.6-6.9c3.1-1.2,6.8-1.9,11.1-1.9
			c3.3,0,6.3,0.5,9,1.4c2.7,0.9,4.9,2.3,6.5,4.2c1.6,1.8,2.7,3.9,3.4,6.2c0.7,2.3,1,5.7,1,10.3v38.1c0,1.6,0.3,2.7,0.8,3.3
			c0.5,0.6,1.4,1,2.6,1.3l2.9,0.2c1.9,0.2,2.9,1.2,2.9,2.9c0,1.9-1,2.9-3,2.9h-26.8c-2,0-3-1-3-2.9c0-1.7,1-2.7,2.9-2.9l2.4-0.2
			c1.6-0.2,2.6-0.8,3-1.6c0.5-0.8,0.7-2.6,0.7-5.3V93.5c0-5.6-0.8-9.6-2.5-11.9c-1.6-2.3-4.4-3.4-8.4-3.4c-5,0-8.9,2-11.8,5.9
			c-2.9,4-4.3,9.3-4.3,16.1v26.1c0,2.7,0.2,4.5,0.6,5.3c0.4,0.8,1.4,1.4,3,1.6l2.2,0.2c1.9,0.2,2.9,1.2,2.9,2.9c0,1.9-1,2.9-2.9,2.9
			H783z"/>
		<path class="st0" d="M903.1,96.4c2.6-1.6,4.4-3,5.4-4.4c1-1.4,1.5-3,1.5-4.9c0-3-1.1-5.7-3.4-8c-2.3-2.3-5-3.4-8.3-3.4
			c-5.5,0-9.9,2.6-13.1,7.7c-3.2,5.1-4.8,12.1-4.8,20.9c0,8.8,1.9,15.7,5.6,20.7c3.7,5,8.9,7.5,15.4,7.5c3.3,0,6.5-0.7,9.7-2.1
			c3.2-1.4,6.2-3.5,8.9-6.2c1-0.9,1.8-1.5,2.4-1.9c0.6-0.3,1.2-0.5,2-0.5c0.9,0,1.7,0.3,2.4,1c0.7,0.7,1,1.5,1,2.4
			c0,2.5-2,5.3-5.9,8.3c-6.3,5-13.8,7.5-22.5,7.5c-5.3,0-10.1-0.9-14.5-2.6c-4.3-1.8-8-4.2-11.1-7.4c-3-3.2-5.4-7-7.1-11.4
			c-1.7-4.5-2.5-9.4-2.5-14.8c0-5.4,0.8-10.4,2.5-14.8c1.6-4.5,4-8.3,7-11.5c3-3.2,6.7-5.7,10.9-7.5c4.2-1.8,8.9-2.7,14-2.7
			c7.6,0,14,2,19.3,6.1c2.6,1.9,4.6,4.1,6,6.6c1.4,2.5,2.1,4.9,2.1,7.1c0,3-2.6,6.1-7.8,9.1l-24.4,14.4c-0.9,0.6-1.6,0.9-2,1.1
			c-0.5,0.2-1,0.3-1.5,0.3c-1.1,0-2.1-0.4-2.8-1.1c-0.7-0.7-1.1-1.7-1.1-2.8c0-1,0.3-1.8,0.8-2.5c0.6-0.6,1.6-1.4,3.2-2.5
			L903.1,96.4z"/>
		<path class="st0" d="M972.1,129.9c0.8-0.5,1.6-0.7,2.4-0.7c0.9,0,1.7,0.3,2.4,0.9c0.7,0.6,1,1.4,1,2.3c0,1.1-0.5,2.2-1.4,3.2
			c-0.9,1-2.1,1.9-3.6,2.7c-1.5,0.8-3.3,1.4-5.3,1.9c-2,0.4-4.1,0.7-6.3,0.7c-3,0-5.7-0.6-8-1.7c-2.3-1.1-3.9-2.7-4.8-4.6
			c-0.6-1.2-1-2.7-1.2-4.2c-0.2-1.6-0.3-3.8-0.3-6.8v-40c0-3-0.3-5-0.8-5.8c-0.5-0.8-1.7-1.2-3.6-1.2h-2.5c-2.5,0-3.7-1-3.7-3
			c0-2.3,1.5-3.4,4.4-3.4h6.3V48.4c0-1.2,0.2-2,0.5-2.4c0.3-0.3,1.4-1,3.2-1.9l5.5-2.7c1.6-0.8,2.7-1.2,3.3-1.2
			c0.9,0,1.5,0.4,1.8,1.1c0.3,0.7,0.4,2.2,0.4,4.5v24.4h8.6c2.3,0,3.7,0.2,4.4,0.6c0.7,0.4,1,1.2,1,2.5c0,1.2-0.3,2.1-1,2.6
			c-0.7,0.5-1.9,0.8-3.6,0.8h-4.7c-2.3,0-3.6,0.3-4.1,1c-0.5,0.7-0.7,2.7-0.7,6.1v39.5c0,5.6,1.6,8.5,4.7,8.5c1.1,0,2.3-0.3,3.4-0.8
			L972.1,129.9z"/>
	</g>
</g>
</svg>
